<svg width="98" height="35" viewBox="0 0 98 35" fill="none" xmlns="http://www.w3.org/2000/svg">
<mask id="mask0_1_19" style="mask-type:luminance" maskUnits="userSpaceOnUse" x="0" y="0" width="98" height="35">
<path d="M98 0H0V34.7566H98V0Z" fill="white"/>
</mask>
<g mask="url(#mask0_1_19)">
<path d="M81.4393 10.29C80.0712 10.29 78.8471 11.2255 78.4151 12.4488H60.9897C60.5576 11.2255 59.4056 10.29 57.9654 10.29C56.5253 10.29 55.3732 11.2255 54.9412 12.4488H37.8038C37.3718 11.2255 36.2197 10.29 34.7795 10.29C33.3394 10.29 32.1873 11.2255 31.7553 12.4488H13.9698C13.5378 11.2255 12.3857 10.29 10.9456 10.29C9.50548 10.29 7.77734 11.7292 7.77734 13.4563C7.77734 15.1833 9.21746 16.6225 10.9456 16.6225C12.6737 16.6225 13.6818 15.6151 14.0419 14.2478H31.6833C32.0433 15.6151 33.2674 16.6225 34.7795 16.6225C36.2917 16.6225 37.5158 15.6151 37.8758 14.2478H54.8692C55.2292 15.6151 56.4533 16.6225 57.9654 16.6225C59.4776 16.6225 60.7017 15.6151 61.0617 14.2478H78.4151C78.7751 15.6151 79.9992 16.6225 81.5114 16.6225C83.0235 16.6225 84.6796 15.1833 84.6796 13.4563C84.6796 11.7292 83.2395 10.29 81.5114 10.29H81.4393Z" fill="#4B164B"/>
<path d="M17.3534 15.3271C17.2814 15.9028 17.1374 16.4785 16.9214 16.9822C16.5614 17.8457 16.1293 18.5653 15.5533 19.2129C14.9772 19.8606 14.3292 20.3643 13.5371 20.7241C12.745 21.0839 11.953 21.2998 11.0889 21.2998C10.2248 21.2998 9.43277 21.0839 8.64071 20.7241C7.84864 20.3643 7.20059 19.8606 6.62454 19.2129C6.04849 18.5653 5.61646 17.8457 5.25643 16.9822C4.8964 16.1187 4.75239 15.2551 4.75239 14.2477C4.75239 13.2403 4.8964 12.3768 5.25643 11.5132C5.61646 10.6497 6.04849 9.93012 6.62454 9.28248C7.20059 8.63484 7.84864 8.13112 8.64071 7.77132C9.43277 7.41152 10.2248 7.19564 11.0889 7.19564C11.953 7.19564 12.745 7.41152 13.5371 7.77132C14.3292 8.13112 14.9772 8.63484 15.5533 9.28248C16.1293 9.85816 16.5614 10.5778 16.9214 11.4413H22.2498V3.30981H17.4974V4.89293C16.8494 4.46117 16.2013 4.02941 15.4813 3.81353C14.0411 3.16589 12.601 2.87805 11.0889 2.87805C9.57678 2.87805 8.13666 3.16589 6.69655 3.81353C5.32844 4.46117 4.10434 5.25273 3.16826 6.26016C2.16018 7.33956 1.36811 8.56288 0.864071 9.93012C0.288024 11.2974 0.0720059 12.7366 0.0720059 14.2477C0.0720059 15.7589 0.360029 17.1981 0.864071 18.4933C1.44012 19.8606 2.16018 21.0839 3.16826 22.1633C3.6723 22.667 4.17634 23.1707 4.82439 23.6025C5.40044 24.0343 6.04849 24.394 6.69655 24.6819C8.13666 25.3295 9.64879 25.6174 11.0889 25.6174C12.529 25.6174 14.0411 25.3295 15.4813 24.6819C16.2013 24.394 16.8494 23.9623 17.4974 23.5305V24.3941C17.4974 25.1856 17.3534 25.9772 16.9934 26.6968C16.6334 27.4164 16.2013 28.064 15.6253 28.5677C15.0492 29.0714 14.4012 29.5032 13.6091 29.863C12.817 30.1508 12.025 30.2948 11.1609 30.2948C10.2968 30.2948 9.50478 30.1508 8.71271 29.863C7.92065 29.5752 7.27259 29.1434 6.69655 28.5677C6.1205 28.064 5.68846 27.4164 5.32843 26.6968C4.96841 25.9772 4.82439 25.2576 4.82439 24.3941H0C0 25.7613 0.288024 27.1285 0.864071 28.3518C1.44012 29.5752 2.23218 30.7265 3.31227 31.662C4.39236 32.6694 5.54445 33.389 6.91256 33.8927C8.28068 34.3965 9.64879 34.6843 11.1609 34.6843C12.673 34.6843 14.0411 34.3965 15.4093 33.8927C16.7774 33.389 17.9295 32.5975 19.0096 31.662C20.0176 30.6546 20.8097 29.5752 21.3857 28.3518C21.9618 27.1285 22.2498 25.8332 22.2498 24.3941V15.2551H17.3534V15.3271Z" fill="#4B164B"/>
<path d="M28.229 11.5132C29.237 8.92268 31.8292 7.12368 34.7815 7.12368C37.7337 7.12368 40.2539 8.92268 41.334 11.5132H46.0864C44.9343 6.33212 40.3259 2.44629 34.7815 2.44629C29.237 2.44629 24.6287 6.33212 23.4766 11.5132H28.301H28.229Z" fill="#4B164B"/>
<path d="M41.693 15.3271C41.117 18.6373 38.2367 21.1559 34.7804 21.1559C31.3242 21.1559 28.4439 18.6373 27.8679 15.3271H23.1875C23.8356 21.1559 28.732 25.6174 34.7084 25.6174C40.6849 25.6174 45.5813 21.0839 46.2294 15.3271H41.693Z" fill="#4B164B"/>
<path d="M51.9879 11.5131C52.348 10.7216 52.78 10.002 53.284 9.35432C53.8601 8.70668 54.5081 8.20296 55.3002 7.84316C56.0923 7.48336 56.8843 7.26748 57.7484 7.26748C58.6125 7.26748 59.4045 7.48336 60.1966 7.84316C60.9887 8.20296 61.6367 8.70668 62.2128 9.35432C62.7888 9.92999 63.2208 10.6496 63.5809 11.5131H68.9093V3.30969H64.1569V4.89281C63.5089 4.46105 62.8608 4.02929 62.1408 3.81341C60.7006 3.16577 59.2605 2.87793 57.7484 2.87793C56.2363 2.87793 54.7962 3.16577 53.356 3.81341C51.9879 4.46105 50.7638 5.2526 49.8278 6.26004C48.8197 7.33944 48.0276 8.56276 47.5236 9.93C47.3076 10.4337 47.1635 10.9374 47.0195 11.4412H51.9879V11.5131Z" fill="#4B164B"/>
<path d="M64.0119 15.327C63.9399 15.9027 63.7959 16.4784 63.5798 16.9821C63.2198 17.8456 62.7878 18.5652 62.2117 19.2129C61.6357 19.8605 60.9876 20.3642 60.1956 20.724C59.4035 21.0838 58.6114 21.2997 57.7474 21.2997C56.8833 21.2997 56.0912 21.0838 55.2992 20.724C54.5071 20.3642 53.859 19.8605 53.283 19.2129C52.707 18.5652 52.2749 17.8456 51.9149 16.9821C51.6989 16.4784 51.5549 15.9027 51.4829 15.327H46.7305C46.8025 16.4784 47.0905 17.5578 47.5225 18.5652C48.0986 19.9325 48.8186 21.1558 49.8267 22.2352C50.3308 22.7389 50.8348 23.2426 51.4829 23.6744C52.0589 24.1061 52.707 24.4659 53.355 24.7538C54.7951 25.4014 56.3072 25.6892 57.7474 25.6892C59.1875 25.6892 60.6996 25.4014 62.1397 24.7538C62.8598 24.4659 63.5078 24.0342 64.1559 23.6024V24.4659C64.1559 25.2575 64.0119 26.049 63.6518 26.7686C63.2918 27.4882 62.8598 28.1359 62.2837 28.6396C61.7077 29.1433 61.0596 29.5751 60.2676 29.9349C59.4755 30.2227 58.6834 30.3666 57.8194 30.3666C56.9553 30.3666 56.1632 30.2227 55.3712 29.9349C54.5791 29.647 53.9311 29.2153 53.355 28.6396C52.779 28.1359 52.3469 27.4882 51.9869 26.7686C51.6269 26.049 51.4829 25.3294 51.4829 24.4659H46.7305C46.7305 25.8332 47.0185 27.2004 47.5945 28.4237C48.1706 29.647 48.9626 30.7984 50.0427 31.7339C51.1228 32.7413 52.2749 33.4609 53.643 33.9646C55.0111 34.4683 56.3793 34.7562 57.8914 34.7562C59.4035 34.7562 60.7716 34.4683 62.1397 33.9646C63.5078 33.4609 64.6599 32.6693 65.74 31.7339C66.7481 30.7264 67.5402 29.647 68.1162 28.4237C68.6923 27.2004 68.9803 25.9051 68.9803 24.4659V15.327H64.0839H64.0119Z" fill="#4B164B"/>
<path d="M81.3647 2.44629C75.8202 2.44629 71.2119 6.33212 70.0598 11.5132H74.8842C75.8922 8.92268 78.4845 7.12368 81.4367 7.12368C84.3889 7.12368 88.4933 10.2899 88.4933 14.1757C88.4933 18.0616 85.325 21.2278 81.4367 21.2278C77.5484 21.2278 75.1002 18.7092 74.5241 15.3991H69.8438C70.4918 21.2278 75.3882 25.6893 81.3647 25.6893C87.3412 25.6893 92.9576 20.5082 92.9576 14.1038C92.9576 7.69936 87.7732 2.44629 81.3647 2.44629Z" fill="#4B164B"/>
<path d="M75.8953 31.5896H74.8153V29.5028C74.8153 29.215 74.6712 28.9991 74.3832 28.9991C74.0952 28.9991 73.9512 29.143 73.9512 29.5028V31.5896H72.8711V28.1356H73.9512V28.4954C74.0952 28.2795 74.3112 28.0636 74.8153 28.0636C75.3193 28.0636 75.5353 28.2075 75.6793 28.4954C75.8953 28.2075 76.1834 28.0636 76.6874 28.0636C77.4795 28.0636 77.8395 28.5673 77.8395 29.2869V31.5896H76.7594V29.5028C76.7594 29.215 76.6154 28.9991 76.3274 28.9991C76.0394 28.9991 75.8953 29.215 75.8953 29.5028V31.5896Z" fill="#4B164B"/>
<path d="M80.1456 28.0635C81.2257 28.0635 82.0177 28.855 82.0177 29.8625C82.0177 30.8699 81.2257 31.6615 80.1456 31.6615C79.0655 31.6615 78.2734 30.8699 78.2734 29.8625C78.2734 28.855 79.0655 28.0635 80.1456 28.0635ZM80.1456 30.726C80.5776 30.726 80.9377 30.3662 80.9377 29.8625C80.9377 29.3588 80.5776 28.999 80.1456 28.999C79.7136 28.999 79.3535 29.3588 79.3535 29.8625C79.3535 30.3662 79.7136 30.726 80.1456 30.726Z" fill="#4B164B"/>
<path d="M83.6706 28.1356H84.2466V28.9991H83.6706V30.2944C83.6706 30.5822 83.8866 30.6542 84.1026 30.6542C84.3186 30.6542 84.2466 30.6542 84.3186 30.6542V31.5897C84.3186 31.5897 84.1746 31.5897 83.8866 31.5897C83.0945 31.5897 82.5905 31.2299 82.5905 30.2225V28.9991H82.2305V28.1356H82.5905V27.416H83.6706V28.1356Z" fill="#4B164B"/>
<path d="M86.4815 28.0635C87.5616 28.0635 88.3537 28.855 88.3537 29.8625C88.3537 30.8699 87.5616 31.6615 86.4815 31.6615C85.4014 31.6615 84.6094 30.8699 84.6094 29.8625C84.6094 28.855 85.4014 28.0635 86.4815 28.0635ZM86.4815 30.726C86.9136 30.726 87.2736 30.3662 87.2736 29.8625C87.2736 29.3588 86.9136 28.999 86.4815 28.999C86.0495 28.999 85.6895 29.3588 85.6895 29.8625C85.6895 30.3662 86.0495 30.726 86.4815 30.726Z" fill="#4B164B"/>
<path d="M90.7996 29.1426C90.7996 29.1426 90.7276 29.1426 90.6556 29.1426C90.1516 29.1426 89.9356 29.5024 89.9356 30.078V31.5892H88.8555V28.1351H89.9356V28.5669C90.0796 28.2071 90.4396 27.9912 90.8716 27.9912V29.1426H90.7996Z" fill="#4B164B"/>
<path d="M92.9609 2.51859C92.9609 1.0794 94.113 0 95.4811 0C96.8493 0 98.0013 1.0794 98.0013 2.51859C98.0013 3.95779 96.8493 5.03719 95.4811 5.03719C94.113 5.03719 92.9609 3.95779 92.9609 2.51859ZM97.4973 2.51859C97.4973 1.29528 96.6332 0.359799 95.4091 0.359799C94.185 0.359799 93.321 1.29528 93.321 2.51859C93.321 3.74191 94.185 4.67739 95.4091 4.67739C96.6332 4.67739 97.4973 3.74191 97.4973 2.51859ZM94.4731 1.15136H95.6972C96.2012 1.15136 96.5612 1.4392 96.5612 1.87096C96.5612 2.30272 96.4172 2.44664 96.0572 2.51859C96.3452 2.59055 96.4172 2.73447 96.4892 3.09427C96.4892 3.45407 96.4892 3.74191 96.6332 3.81387H96.1292C96.0572 3.81387 96.0572 3.45407 95.9852 3.16623C95.9852 2.87839 95.8412 2.73447 95.4811 2.73447H95.0491V3.81387H94.5451V1.15136H94.4731ZM94.9771 2.37468H95.5531C95.8412 2.37468 95.9852 2.23076 95.9852 2.01488C95.9852 1.799 95.8412 1.65508 95.5531 1.65508H94.9771V2.37468Z" fill="#4B164B"/>
</g>
</svg>
