<svg width="184" height="65" viewBox="0 0 184 65" fill="none" xmlns="http://www.w3.org/2000/svg">
<g clip-path="url(#clip0_358_860)">
<path d="M152.514 19.2443C149.952 19.2443 147.659 20.9938 146.85 23.2816H114.217C113.408 20.9938 111.25 19.2443 108.553 19.2443C105.856 19.2443 103.699 20.9938 102.89 23.2816H70.7955C69.9864 20.9938 67.8288 19.2443 65.1318 19.2443C62.4348 19.2443 60.2773 20.9938 59.4682 23.2816H26.1605C25.3514 20.9938 23.1938 19.2443 20.4968 19.2443C17.7999 19.2443 14.5635 21.9358 14.5635 25.1656C14.5635 28.3955 17.2605 31.087 20.4968 31.087C23.7332 31.087 25.6211 29.2029 26.2953 26.646H59.3333C60.0076 29.2029 62.3 31.087 65.1318 31.087C67.9637 31.087 70.2561 29.2029 70.9303 26.646H102.755C103.429 29.2029 105.721 31.087 108.553 31.087C111.385 31.087 113.677 29.2029 114.352 26.646H146.85C147.525 29.2029 149.817 31.087 152.649 31.087C155.481 31.087 158.582 28.3955 158.582 25.1656C158.582 21.9358 155.885 19.2443 152.649 19.2443H152.514Z" fill="url(#paint0_linear_358_860)"/>
<path d="M32.4986 28.6646C32.3637 29.7412 32.094 30.8178 31.6895 31.7598C31.0153 33.3747 30.2062 34.7205 29.1274 35.9317C28.0486 37.1428 26.8349 38.0849 25.3516 38.7577C23.8683 39.4306 22.3849 39.8343 20.7667 39.8343C19.1485 39.8343 17.6652 39.4306 16.1819 38.7577C14.6985 38.0849 13.4849 37.1428 12.4061 35.9317C11.3273 34.7205 10.5182 33.3747 9.84397 31.7598C9.16973 30.1449 8.90003 28.53 8.90003 26.6459C8.90003 24.7619 9.16973 23.147 9.84397 21.5321C10.5182 19.9172 11.3273 18.5714 12.4061 17.3602C13.4849 16.149 14.6985 15.207 16.1819 14.5341C17.6652 13.8613 19.1485 13.4575 20.7667 13.4575C22.3849 13.4575 23.8683 13.8613 25.3516 14.5341C26.8349 15.207 28.0486 16.149 29.1274 17.3602C30.2062 18.4368 31.0153 19.7826 31.6895 21.3975H41.6683V6.19045H32.7683V9.15111C31.5547 8.34366 30.341 7.53621 28.9925 7.13248C26.2955 5.9213 23.5986 5.383 20.7667 5.383C17.9349 5.383 15.2379 5.9213 12.541 7.13248C9.97882 8.34366 7.68639 9.82399 5.93335 11.708C4.04547 13.7267 2.56213 16.0145 1.61819 18.5714C0.539396 21.1283 0.134849 23.8198 0.134849 26.6459C0.134849 29.472 0.674245 32.1635 1.61819 34.5859C2.69698 37.1428 4.04547 39.4306 5.93335 41.4492C6.8773 42.3913 7.82124 43.3333 9.03488 44.1408C10.1137 44.9482 11.3273 45.6211 12.541 46.1594C15.2379 47.3706 18.0698 47.9089 20.7667 47.9089C23.4637 47.9089 26.2955 47.3706 28.9925 46.1594C30.341 45.6211 31.5547 44.8136 32.7683 44.0062V45.6211C32.7683 47.1014 32.4986 48.5818 31.8244 49.9275C31.1501 51.2733 30.341 52.4844 29.2622 53.4265C28.1834 54.3685 26.9698 55.176 25.4864 55.8488C24.0031 56.3871 22.5198 56.6563 20.9016 56.6563C19.2834 56.6563 17.8001 56.3871 16.3167 55.8488C14.8334 55.3105 13.6197 54.5031 12.541 53.4265C11.4622 52.4844 10.6531 51.2733 9.97882 49.9275C9.30458 48.5818 9.03488 47.236 9.03488 45.6211H0C0 48.178 0.539396 50.735 1.61819 53.0228C2.69698 55.3105 4.18032 57.4637 6.20305 59.2132C8.22579 61.0973 10.3834 62.443 12.9455 63.3851C15.5076 64.3271 18.0698 64.8654 20.9016 64.8654C23.7334 64.8654 26.2955 64.3271 28.8577 63.3851C31.4198 62.443 33.5774 60.9627 35.6001 59.2132C37.488 57.3292 38.9713 55.3105 40.0501 53.0228C41.1289 50.735 41.6683 48.3126 41.6683 45.6211V28.53H32.4986V28.6646Z" fill="#4B164B"/>
<path d="M52.86 21.5321C54.7479 16.6874 59.6024 13.323 65.1312 13.323C70.66 13.323 75.3798 16.6874 77.4025 21.5321H86.3025C84.1449 11.8426 75.5146 4.57556 65.1312 4.57556C54.7479 4.57556 46.1175 11.8426 43.96 21.5321H52.9948H52.86Z" fill="#4B164B"/>
<path d="M78.0771 28.6646C76.9983 34.8551 71.6043 39.5652 65.1316 39.5652C58.6588 39.5652 53.2649 34.8551 52.1861 28.6646H43.4209C44.6345 39.5652 53.8043 47.9089 64.9967 47.9089C76.1892 47.9089 85.3589 39.4307 86.5726 28.6646H78.0771Z" fill="#4B164B"/>
<path d="M97.3602 21.5321C98.0345 20.0517 98.8436 18.706 99.7875 17.4948C100.866 16.2836 102.08 15.3416 103.563 14.6687C105.047 13.9958 106.53 13.5921 108.148 13.5921C109.766 13.5921 111.25 13.9958 112.733 14.6687C114.216 15.3416 115.43 16.2836 116.509 17.4948C117.588 18.5714 118.397 19.9172 119.071 21.5321H129.05V6.19045H120.15V9.15111C118.936 8.34366 117.722 7.5362 116.374 7.13248C113.677 5.9213 110.98 5.383 108.148 5.383C105.316 5.383 102.619 5.9213 99.9224 7.13248C97.3602 8.34366 95.0678 9.82399 93.3148 11.708C91.4269 13.7267 89.9435 16.0145 88.9996 18.5714C88.5951 19.5134 88.3254 20.4555 88.0557 21.3975H97.3602V21.5321Z" fill="#4B164B"/>
<path d="M119.88 28.6646C119.745 29.7412 119.476 30.8178 119.071 31.7598C118.397 33.3747 117.588 34.7205 116.509 35.9316C115.43 37.1428 114.217 38.0848 112.733 38.7577C111.25 39.4306 109.767 39.8343 108.148 39.8343C106.53 39.8343 105.047 39.4306 103.564 38.7577C102.08 38.0848 100.867 37.1428 99.7879 35.9316C98.7091 34.7205 97.9 33.3747 97.2257 31.7598C96.8212 30.8178 96.5515 29.7412 96.4166 28.6646H87.5166C87.6515 30.8178 88.1908 32.8364 88.9999 34.7205C90.0787 37.2774 91.4272 39.5652 93.3151 41.5838C94.259 42.5258 95.203 43.4679 96.4166 44.2753C97.4954 45.0828 98.7091 45.7557 99.9227 46.294C102.62 47.5051 105.452 48.0434 108.148 48.0434C110.845 48.0434 113.677 47.5051 116.374 46.294C117.723 45.7557 118.936 44.9482 120.15 44.1407V45.7556C120.15 47.236 119.88 48.7163 119.206 50.0621C118.532 51.4078 117.723 52.619 116.644 53.561C115.565 54.5031 114.352 55.3105 112.868 55.9834C111.385 56.5217 109.902 56.7908 108.283 56.7908C106.665 56.7908 105.182 56.5217 103.698 55.9834C102.215 55.4451 101.001 54.6376 99.9227 53.561C98.8439 52.619 98.0348 51.4078 97.3606 50.0621C96.6863 48.7163 96.4166 47.3706 96.4166 45.7556H87.5166C87.5166 48.3126 88.056 50.8695 89.1348 53.1573C90.2136 55.4451 91.6969 57.5983 93.7197 59.3478C95.7424 61.2318 97.9 62.5776 100.462 63.5196C103.024 64.4617 105.586 65 108.418 65C111.25 65 113.812 64.4617 116.374 63.5196C118.936 62.5776 121.094 61.0973 123.117 59.3478C125.005 57.4637 126.488 55.4451 127.567 53.1573C128.646 50.8695 129.185 48.4472 129.185 45.7556V28.6646H120.015H119.88Z" fill="#4B164B"/>
<path d="M152.38 4.57556C141.996 4.57556 133.366 11.8426 131.208 21.5321H140.243C142.131 16.6874 146.986 13.323 152.514 13.323C158.043 13.323 165.73 19.2443 165.73 26.5114C165.73 33.7785 159.796 39.6998 152.514 39.6998C145.233 39.6998 140.648 34.9896 139.569 28.7992H130.804C132.017 39.6998 141.187 48.0435 152.38 48.0435C163.572 48.0435 174.09 38.354 174.09 26.3768C174.09 14.3996 164.381 4.57556 152.38 4.57556Z" fill="#4B164B"/>
<path d="M142.13 59.0786H140.108V55.1759C140.108 54.6376 139.838 54.2339 139.299 54.2339C138.759 54.2339 138.49 54.5031 138.49 55.1759V59.0786H136.467V52.619H138.49V53.2919C138.759 52.8882 139.164 52.4844 140.108 52.4844C141.052 52.4844 141.456 52.7536 141.726 53.2919C142.13 52.7536 142.67 52.4844 143.614 52.4844C145.097 52.4844 145.771 53.4265 145.771 54.7722V59.0786H143.749V55.1759C143.749 54.6376 143.479 54.2339 142.94 54.2339C142.4 54.2339 142.13 54.6376 142.13 55.1759V59.0786Z" fill="#4B164B"/>
<path d="M150.086 52.4844C152.109 52.4844 153.592 53.9648 153.592 55.8488C153.592 57.7329 152.109 59.2132 150.086 59.2132C148.063 59.2132 146.58 57.7329 146.58 55.8488C146.58 53.9648 148.063 52.4844 150.086 52.4844ZM150.086 57.4637C150.895 57.4637 151.569 56.7909 151.569 55.8488C151.569 54.9068 150.895 54.2339 150.086 54.2339C149.277 54.2339 148.603 54.9068 148.603 55.8488C148.603 56.7909 149.277 57.4637 150.086 57.4637Z" fill="#4B164B"/>
<path d="M156.694 52.619H157.773V54.2339H156.694V56.6563C156.694 57.1946 157.099 57.3292 157.503 57.3292C157.908 57.3292 157.773 57.3292 157.908 57.3292V59.0786C157.908 59.0786 157.638 59.0786 157.099 59.0786C155.615 59.0786 154.671 58.4058 154.671 56.5217V54.2339H153.997V52.619H154.671V51.2733H156.694V52.619Z" fill="#4B164B"/>
<path d="M161.953 52.4844C163.976 52.4844 165.459 53.9648 165.459 55.8488C165.459 57.7329 163.976 59.2132 161.953 59.2132C159.931 59.2132 158.447 57.7329 158.447 55.8488C158.447 53.9648 159.931 52.4844 161.953 52.4844ZM161.953 57.4637C162.762 57.4637 163.437 56.7909 163.437 55.8488C163.437 54.9068 162.762 54.2339 161.953 54.2339C161.144 54.2339 160.47 54.9068 160.47 55.8488C160.47 56.7909 161.144 57.4637 161.953 57.4637Z" fill="#4B164B"/>
<path d="M170.044 54.5031C170.044 54.5031 169.909 54.5031 169.775 54.5031C168.831 54.5031 168.426 55.1759 168.426 56.2525V59.0786H166.403V52.619H168.426V53.4265C168.696 52.7536 169.37 52.3499 170.179 52.3499V54.5031H170.044Z" fill="#4B164B"/>
<path d="M174.09 4.71014C174.09 2.01863 176.247 0 178.81 0C181.372 0 183.529 2.01863 183.529 4.71014C183.529 7.40166 181.372 9.42029 178.81 9.42029C176.247 9.42029 174.09 7.40166 174.09 4.71014ZM182.585 4.71014C182.585 2.42236 180.967 0.672878 178.675 0.672878C176.382 0.672878 174.764 2.42236 174.764 4.71014C174.764 6.99793 176.382 8.74741 178.675 8.74741C180.967 8.74741 182.585 6.99793 182.585 4.71014ZM176.922 2.15321H179.214C180.158 2.15321 180.832 2.69151 180.832 3.49896C180.832 4.30642 180.563 4.57557 179.888 4.71014C180.428 4.84472 180.563 5.11387 180.697 5.78675C180.697 6.45963 180.697 6.99793 180.967 7.13251H180.023C179.888 7.13251 179.888 6.45963 179.753 5.92133C179.753 5.38302 179.484 5.11387 178.81 5.11387H178V7.13251H177.057V2.15321H176.922ZM177.866 4.44099H178.944C179.484 4.44099 179.753 4.17184 179.753 3.76812C179.753 3.36439 179.484 3.09524 178.944 3.09524H177.866V4.44099Z" fill="#4B164B"/>
</g>
<defs>
<linearGradient id="paint0_linear_358_860" x1="14.5635" y1="25.3002" x2="158.447" y2="25.3002" gradientUnits="userSpaceOnUse">
<stop stop-color="#F47F20"/>
<stop offset="1" stop-color="#EC2024"/>
</linearGradient>
<clipPath id="clip0_358_860">
<rect width="183.529" height="65" fill="white"/>
</clipPath>
</defs>
</svg>
